# xmcd
#
# Track frame offsets:
# 150
# 12322
# 22982
# 36892
# 50485
# 64220
# 81565
# 97372
# 109827
# 121005
# 133912
# 149167
# 161417
# 176420
# 187097
# 198615
# 212875
# 226270
# 240122
# 251640
#
# Disc length: 3509 seconds
#
#
# Revision: 0
# Processed by: cddbd v1.5.1PL2 Copyright (c) Steve Scherf et al.
# Submitted via: FreeRIP 2.944 
#
DISCID=270db314
DTITLE=Various Artist - Everlasting Sentimental Hits 2
DYEAR=1900
DGENRE=Oldies
TTITLE0=rhythm of the rain
TTITLE1=more than i can say
TTITLE2=take me home country road
TTITLE3=daddy's home
TTITLE4=san francisco
TTITLE5=rhinestone cowboy
TTITLE6=tie a yellow ribbon round the old oak tree
TTITLE7=seven lonely days
TTITLE8=the end of the world
TTITLE9=cotton fields
TTITLE10=seasons in the sun
TTITLE11=leaving on a jet plane
TTITLE12=sukiyaki
TTITLE13=oh! carol
TTITLE14=silver threads among the gold
TTITLE15=guantanamera
TTITLE16=evergreen
TTITLE17=moon river
TTITLE18=born free
TTITLE19=one way ticket
EXTD=
EXTT0=
EXTT1=
EXTT2=
EXTT3=
EXTT4=
EXTT5=
EXTT6=
EXTT7=
EXTT8=
EXTT9=
EXTT10=
EXTT11=
EXTT12=
EXTT13=
EXTT14=
EXTT15=
EXTT16=
EXTT17=
EXTT18=
EXTT19=
PLAYORDER=
